<svg width="21" height="23" viewBox="0 0 21 23" fill="none" xmlns="http://www.w3.org/2000/svg">
<g clip-path="url(#clip0_4_189)">
<path d="M20.4534 8.98205C20.4534 9.19686 20.3675 9.36871 20.1527 9.58352L15.6846 13.9227L16.7587 20.0663C16.7587 20.1093 16.7587 20.1952 16.7587 20.3241C16.7587 20.4959 16.7157 20.6248 16.6298 20.7537C16.5439 20.8826 16.415 20.9255 16.2431 20.9255C16.1142 20.9255 15.9424 20.8826 15.7705 20.7967L10.2714 17.8752L4.72927 20.7967C4.55742 20.8826 4.38557 20.9255 4.25668 20.9255C4.08483 20.9255 3.95595 20.8826 3.87002 20.7537C3.7841 20.6248 3.74113 20.4959 3.74113 20.3241C3.74113 20.2811 3.74113 20.1952 3.7841 20.0663L4.81519 13.9227L0.347122 9.58352C0.132311 9.36871 0.0463867 9.1539 0.0463867 8.98205C0.0463867 8.68131 0.261198 8.50947 0.733782 8.42354L6.87737 7.52133L9.66992 1.93625C9.7988 1.63552 10.0136 1.46367 10.2714 1.46367C10.4862 1.46367 10.701 1.63552 10.8729 1.93625L13.6224 7.52133L19.766 8.42354C20.2386 8.50947 20.4534 8.68131 20.4534 8.98205Z" fill="#FFD800"/>
</g>
<defs>
<clipPath id="clip0_4_189">
<rect width="20.45" height="22" fill="white" transform="matrix(1 0 0 -1 0.0463867 22.8606)"/>
</clipPath>
</defs>
</svg>
