<svg width="22" height="23" viewBox="0 0 22 23" fill="none" xmlns="http://www.w3.org/2000/svg">
<g clip-path="url(#clip0_4_195)">
<path d="M21.2835 8.98205C21.2835 9.19686 21.1976 9.36871 20.9828 9.58352L16.5147 13.9227L17.5888 20.0663C17.5888 20.1093 17.5888 20.1952 17.5888 20.3241C17.5888 20.4959 17.5458 20.6248 17.4599 20.7537C17.3739 20.8826 17.2451 20.9255 17.0732 20.9255C16.9443 20.9255 16.7725 20.8826 16.6006 20.7967L11.1015 17.8752L5.55934 20.7967C5.38749 20.8826 5.21565 20.9255 5.08676 20.9255C4.91491 20.9255 4.78602 20.8826 4.7001 20.7537C4.61418 20.6248 4.57121 20.4959 4.57121 20.3241C4.57121 20.2811 4.57121 20.1952 4.61418 20.0663L5.64527 13.9227L1.1772 9.58352C0.962389 9.36871 0.876465 9.1539 0.876465 8.98205C0.876465 8.68131 1.09128 8.50947 1.56386 8.42354L7.70745 7.52133L10.5 1.93625C10.6289 1.63552 10.8437 1.46367 11.1015 1.46367C11.3163 1.46367 11.5311 1.63552 11.7029 1.93625L14.4525 7.52133L20.5961 8.42354C21.0687 8.50947 21.2835 8.68131 21.2835 8.98205Z" fill="#FFD800"/>
</g>
<defs>
<clipPath id="clip0_4_195">
<rect width="20.45" height="22" fill="white" transform="matrix(1 0 0 -1 0.876465 22.8606)"/>
</clipPath>
</defs>
</svg>
