<svg width="40" height="36" viewBox="0 0 40 36" fill="none" xmlns="http://www.w3.org/2000/svg">
<g opacity="0.5">
<rect x="0.836426" y="0.540283" width="39" height="35.09" rx="17.545" fill="#FF007B"/>
<g clip-path="url(#clip0_4_499)">
<path d="M25.9079 22.2512V16.6797C25.7531 16.8538 25.5862 17.0134 25.4073 17.1585C24.1112 18.1548 23.081 18.9721 22.3169 19.6105C22.0702 19.8185 21.8695 19.9805 21.7148 20.0966C21.56 20.2126 21.3508 20.3299 21.0873 20.4484C20.8237 20.5669 20.5758 20.6262 20.3437 20.6262H20.3364H20.3292C20.097 20.6262 19.8492 20.5669 19.5856 20.4484C19.322 20.3299 19.1128 20.2126 18.9581 20.0966C18.8033 19.9805 18.6026 19.8185 18.356 19.6105C17.5918 18.9721 16.5617 18.1548 15.2656 17.1585C15.0866 17.0134 14.9198 16.8538 14.765 16.6797V22.2512C14.765 22.314 14.788 22.3684 14.8339 22.4144C14.8799 22.4603 14.9343 22.4833 14.9971 22.4833H25.6757C25.7386 22.4833 25.793 22.4603 25.8389 22.4144C25.8849 22.3684 25.9079 22.314 25.9079 22.2512ZM25.9079 14.6267C25.9079 14.617 25.9079 14.5904 25.9079 14.5469C25.9079 14.5034 25.9079 14.4707 25.9079 14.449C25.9079 14.4272 25.9066 14.3958 25.9042 14.3547C25.9018 14.3136 25.8946 14.2833 25.8825 14.264C25.8704 14.2446 25.8571 14.2229 25.8426 14.1987C25.8281 14.1745 25.8063 14.1564 25.7773 14.1443C25.7483 14.1322 25.7144 14.1262 25.6757 14.1262H14.9971C14.9343 14.1262 14.8799 14.1491 14.8339 14.1951C14.788 14.241 14.765 14.2954 14.765 14.3583C14.765 15.1708 15.1205 15.8575 15.8314 16.4186C16.7648 17.1537 17.7345 17.9202 18.7404 18.7182C18.7695 18.7424 18.8541 18.8137 18.9943 18.9322C19.1346 19.0507 19.2458 19.1414 19.3281 19.2043C19.4103 19.2671 19.5179 19.3433 19.6509 19.4328C19.7839 19.5223 19.906 19.5888 20.0172 19.6323C20.1285 19.6758 20.2324 19.6976 20.3292 19.6976H20.3364H20.3437C20.4404 19.6976 20.5444 19.6758 20.6556 19.6323C20.7669 19.5888 20.889 19.5223 21.022 19.4328C21.155 19.3433 21.2626 19.2671 21.3448 19.2043C21.427 19.1414 21.5382 19.0507 21.6785 18.9322C21.8188 18.8137 21.9034 18.7424 21.9324 18.7182C22.9384 17.9202 23.908 17.1537 24.8414 16.4186C25.1026 16.2106 25.3456 15.9313 25.5705 15.5807C25.7954 15.23 25.9079 14.9121 25.9079 14.6267ZM26.8364 14.3583V22.2512C26.8364 22.5703 26.7228 22.8436 26.4955 23.0709C26.2682 23.2982 25.9949 23.4119 25.6757 23.4119H14.9971C14.6779 23.4119 14.4047 23.2982 14.1774 23.0709C13.9501 22.8436 13.8364 22.5703 13.8364 22.2512V14.3583C13.8364 14.0391 13.9501 13.7658 14.1774 13.5385C14.4047 13.3112 14.6779 13.1976 14.9971 13.1976H25.6757C25.9949 13.1976 26.2682 13.3112 26.4955 13.5385C26.7228 13.7658 26.8364 14.0391 26.8364 14.3583Z" fill="#FF007B"/>
</g>
</g>
<defs>
<clipPath id="clip0_4_499">
<rect width="13" height="13" fill="white" transform="matrix(1 0 0 -1 13.8364 24.3403)"/>
</clipPath>
</defs>
</svg>
