<svg width="37" height="37" viewBox="0 0 37 37" fill="none" xmlns="http://www.w3.org/2000/svg">
<rect x="0.146362" y="0.360596" width="36" height="36" rx="18" fill="url(#paint0_linear_4_235)"/>
<path d="M18.1464 10.0273C15.8489 10.0273 13.9797 11.8965 13.9797 14.194C13.9797 16.4915 15.8489 18.3607 18.1464 18.3607C20.4439 18.3607 22.313 16.4915 22.313 14.194C22.313 11.8965 20.4439 10.0273 18.1464 10.0273ZM18.1464 16.694C16.768 16.694 15.6464 15.5723 15.6464 14.194C15.6464 12.8157 16.768 11.694 18.1464 11.694C19.5247 11.694 20.6464 12.8157 20.6464 14.194C20.6464 15.5723 19.5247 16.694 18.1464 16.694ZM25.6464 25.8607V25.0273C25.6464 21.8115 23.0289 19.194 19.813 19.194H16.4797C13.263 19.194 10.6464 21.8115 10.6464 25.0273V25.8607H12.313V25.0273C12.313 22.7298 14.1822 20.8607 16.4797 20.8607H19.813C22.1105 20.8607 23.9797 22.7298 23.9797 25.0273V25.8607H25.6464Z" fill="white"/>
<defs>
<linearGradient id="paint0_linear_4_235" x1="5.85213" y1="39.6548" x2="30.4406" y2="-2.93363" gradientUnits="userSpaceOnUse">
<stop stop-color="#0D559F"/>
<stop offset="0.85" stop-color="#E53333"/>
</linearGradient>
</defs>
</svg>
