<svg width="13" height="14" viewBox="0 0 13 14" fill="none" xmlns="http://www.w3.org/2000/svg">
<g clip-path="url(#clip0_4_540)">
<path d="M8.13389 8.79226C8.13389 8.79226 8.29289 8.63327 8.61087 8.31528C8.92886 7.99729 9.08786 7.39094 9.08786 6.49622C9.08786 5.60151 8.76987 4.83616 8.13389 4.20019C7.49792 3.56421 6.73257 3.24622 5.83786 3.24622C4.94314 3.24622 4.17779 3.56421 3.54182 4.20019C2.90584 4.83616 2.58786 5.60151 2.58786 6.49622C2.58786 7.39094 2.90584 8.15629 3.54182 8.79226C4.17779 9.42824 4.94314 9.74622 5.83786 9.74622C6.73257 9.74622 7.49792 9.42824 8.13389 8.79226ZM12.8021 12.5319C12.8021 12.7834 12.7103 13.0011 12.5265 13.1848C12.3427 13.3686 12.1251 13.4605 11.8736 13.4605C11.6124 13.4605 11.3948 13.3686 11.2207 13.1848L8.73239 10.7038C7.86669 11.3035 6.90184 11.6034 5.83786 11.6034C5.14626 11.6034 4.4849 11.4692 3.85376 11.2007C3.22262 10.9323 2.67854 10.5696 2.22151 10.1126C1.76447 9.65554 1.40175 9.11146 1.13334 8.48032C0.86492 7.84918 0.730713 7.18782 0.730713 6.49622C0.730713 5.80463 0.86492 5.14327 1.13334 4.51213C1.40175 3.88099 1.76447 3.33691 2.22151 2.87987C2.67854 2.42284 3.22262 2.06012 3.85376 1.79171C4.4849 1.52329 5.14626 1.38908 5.83786 1.38908C6.52945 1.38908 7.19081 1.52329 7.82195 1.79171C8.45309 2.06012 8.99717 2.42284 9.45421 2.87987C9.91124 3.33691 10.274 3.88099 10.5424 4.51213C10.8108 5.14327 10.945 5.80463 10.945 6.49622C10.945 7.56021 10.6451 8.52506 10.0454 9.39076L12.5337 11.879C12.7127 12.058 12.8021 12.2756 12.8021 12.5319Z" fill="black"/>
</g>
<defs>
<clipPath id="clip0_4_540">
<rect width="12.08" height="13" fill="white" transform="matrix(1 0 0 -1 0.72644 13.4605)"/>
</clipPath>
</defs>
</svg>
