<svg width="12" height="11" viewBox="0 0 12 11" fill="none" xmlns="http://www.w3.org/2000/svg">
<g clip-path="url(#clip0_4_399)">
<path d="M3.32003 3.28547C3.32003 3.28547 3.35491 3.25059 3.42467 3.18084C3.49442 3.11108 3.5293 2.97762 3.5293 2.78045C3.5293 2.58328 3.45954 2.41493 3.32003 2.27543C3.18052 2.13592 3.01218 2.06616 2.81501 2.06616C2.61784 2.06616 2.4495 2.13592 2.30999 2.27543C2.17048 2.41493 2.10073 2.58328 2.10073 2.78045C2.10073 2.97762 2.17048 3.14596 2.30999 3.28547C2.4495 3.42498 2.61784 3.49473 2.81501 3.49473C3.01218 3.49473 3.18052 3.42498 3.32003 3.28547ZM9.48354 5.99473C9.48354 6.19191 9.41471 6.35932 9.27707 6.49697L6.53711 9.2425C6.39202 9.38015 6.22275 9.44897 6.0293 9.44897C5.83212 9.44897 5.66471 9.38015 5.52706 9.2425L1.53711 5.24697C1.39574 5.10932 1.27576 4.92144 1.17718 4.68335C1.07859 4.44525 1.0293 4.22762 1.0293 4.03045V1.70902C1.0293 1.51557 1.09998 1.34816 1.24135 1.20679C1.38272 1.06542 1.55013 0.994734 1.74358 0.994734H4.06501C4.26218 0.994734 4.47982 1.04403 4.71791 1.14261C4.95601 1.2412 5.14574 1.36118 5.28711 1.50255L9.27707 5.48692C9.41471 5.63201 9.48354 5.80128 9.48354 5.99473ZM11.6264 5.99473C11.6264 6.19191 11.5576 6.35932 11.4199 6.49697L8.67997 9.2425C8.53488 9.38015 8.36561 9.44897 8.17215 9.44897C8.03823 9.44897 7.92848 9.42293 7.84291 9.37085C7.75735 9.31877 7.65876 9.23506 7.54715 9.11973L10.1699 6.49697C10.3076 6.35932 10.3764 6.19191 10.3764 5.99473C10.3764 5.80128 10.3076 5.63201 10.1699 5.48692L6.17997 1.50255C6.0386 1.36118 5.84887 1.2412 5.61077 1.14261C5.37267 1.04403 5.15504 0.994734 4.95787 0.994734H6.20787C6.40504 0.994734 6.62267 1.04403 6.86077 1.14261C7.09887 1.2412 7.2886 1.36118 7.42997 1.50255L11.4199 5.48692C11.5576 5.63201 11.6264 5.80128 11.6264 5.99473Z" fill="#2E2323"/>
</g>
<defs>
<clipPath id="clip0_4_399">
<rect width="11.14" height="10" fill="white" transform="matrix(1 0 0 -1 0.816406 10.2805)"/>
</clipPath>
</defs>
</svg>
24 1.92768 1.42498 1.92768H3.28212C3.3595 1.92768 3.42842 1.9434 3.48887 1.97484C3.54933 2.00627 3.59648 2.04375 3.63034 2.08728C3.66419 2.13081 3.69563 2.19005 3.72464 2.26501C3.75366 2.33998 3.77301 2.40285 3.78268 2.45363C3.79235 2.50441 3.80565 2.57575 3.82258 2.66764C3.83951 2.75953 3.85039 2.8224 3.85522 2.85625H12.5678C12.6936 2.85625 12.8024 2.9022 12.8943 2.99409C12.9862 3.08598 13.0321 3.19479 13.0321 3.32054Z" fill="white"/>
</g>
<defs>
<clipPath id="clip0_4_58">
<rect width="12.08" height="13" fill="white" transform="matrix(1 0 0 -1 0.956421 13.0706)"/>
</clipPath>
</defs>
</svg>
