<svg width="23" height="2" viewBox="0 0 23 2" fill="none" xmlns="http://www.w3.org/2000/svg">
<g clip-path="url(#clip0_4_223)">
<path d="M22.4698 1.22974C22.4698 1.2395 22.3781 1.24731 22.1487 1.25708L17.3779 1.45435L18.5247 1.73364C18.5247 1.7356 18.5247 1.7395 18.5247 1.74536C18.5247 1.75317 18.4789 1.75903 18.3871 1.76489C18.2954 1.77075 18.1578 1.77271 17.9743 1.77271C17.8366 1.77271 17.6532 1.77075 17.4697 1.76685L11.5979 1.63403L5.68024 1.76685C5.49674 1.77075 5.31325 1.77271 5.17563 1.77271C4.99214 1.77271 4.85452 1.77075 4.76277 1.76489C4.67103 1.75903 4.62515 1.75317 4.62515 1.74536C4.62515 1.74341 4.62515 1.7395 4.67103 1.73364L5.77198 1.45435L1.00117 1.25708C0.7718 1.24731 0.680054 1.23755 0.680054 1.22974C0.680054 1.21606 0.90942 1.20825 1.41403 1.20435L7.9739 1.16333L10.9557 0.909424C11.0933 0.895752 11.3226 0.887939 11.5979 0.887939C11.8273 0.887939 12.0566 0.895752 12.2401 0.909424L15.176 1.16333L21.7359 1.20435C22.2405 1.20825 22.4698 1.21606 22.4698 1.22974Z" fill="#FFD800"/>
</g>
<defs>
<clipPath id="clip0_4_223">
<rect width="21.843" height="1" fill="white" transform="matrix(1 0 0 -1 0.676392 1.8606)"/>
</clipPath>
</defs>
</svg>
