<svg width="31" height="31" viewBox="0 0 31 31" fill="none" xmlns="http://www.w3.org/2000/svg">
<g clip-path="url(#clip0_4_543)">
<path d="M9.72049 1.80916C9.72049 1.80916 10.1837 1.61106 11.11 1.21485C12.0363 0.818647 13.5151 0.620544 15.5464 0.620544C17.5776 0.620544 19.5196 1.01675 21.3723 1.80916C23.225 2.60157 24.8209 3.66742 26.1602 5.00671C27.4995 6.34599 28.5654 7.94197 29.3578 9.79465C30.1502 11.6473 30.5464 13.5893 30.5464 15.6205C30.5464 17.6406 30.153 19.577 29.3661 21.4297C28.5793 23.2824 27.5163 24.8784 26.177 26.2176C24.8377 27.5569 23.2417 28.6256 21.389 29.4236C19.5363 30.2215 17.5888 30.6205 15.5464 30.6205C13.504 30.6205 11.5564 30.2243 9.70375 29.4319C7.85107 28.6395 6.25788 27.5709 4.92418 26.226C3.59047 24.8811 2.52741 23.2852 1.735 21.4381C0.942592 19.591 0.546387 17.6518 0.546387 15.6205C0.546387 13.5893 0.942592 11.6473 1.735 9.79465C2.52741 7.94197 3.59326 6.34599 4.93255 5.00671C6.27183 3.66742 7.86782 2.60157 9.72049 1.80916ZM25.9091 23.2377C27.5721 20.9498 28.4035 18.4107 28.4035 15.6205C28.4035 13.8795 28.0631 12.2165 27.3823 10.6317C26.7015 9.04688 25.7863 7.6797 24.6368 6.53014C23.4872 5.38059 22.12 4.46541 20.5352 3.78461C18.9504 3.1038 17.2875 2.7634 15.5464 2.7634C13.8053 2.7634 12.1424 3.1038 10.5575 3.78461C8.97273 4.46541 7.60554 5.38059 6.45598 6.53014C5.30643 7.6797 4.39125 9.04688 3.71045 10.6317C3.02965 12.2165 2.68924 13.8795 2.68924 15.6205C2.68924 18.4107 3.52072 20.9498 5.18366 23.2377C5.92027 19.5882 7.62786 17.7634 10.3064 17.7634C11.7685 19.192 13.5151 19.9063 15.5464 19.9063C17.5776 19.9063 19.3243 19.192 20.7863 17.7634C23.4649 17.7634 25.1725 19.5882 25.9091 23.2377ZM20.0916 16.9515C20.0916 16.9515 20.4055 16.6376 21.0333 16.0098C21.6611 15.382 21.975 14.1808 21.975 12.4063C21.975 10.6317 21.3472 9.11664 20.0916 7.86106C18.836 6.60548 17.3209 5.97769 15.5464 5.97769C13.7718 5.97769 12.2568 6.60548 11.0012 7.86106C9.74561 9.11664 9.11782 10.6317 9.11782 12.4063C9.11782 14.1808 9.74561 15.6959 11.0012 16.9515C12.2568 18.207 13.7718 18.8348 15.5464 18.8348C17.3209 18.8348 18.836 18.207 20.0916 16.9515Z" fill="#FF007B"/>
</g>
<defs>
<clipPath id="clip0_4_543">
<rect width="30" height="30" fill="white" transform="matrix(1 0 0 -1 0.546387 30.6205)"/>
</clipPath>
</defs>
</svg>
