<svg width="31" height="31" viewBox="0 0 31 31" fill="none" xmlns="http://www.w3.org/2000/svg">
<g clip-path="url(#clip0_4_382)">
<path d="M26.2963 8.44772C26.6088 8.76022 26.7651 9.13968 26.7651 9.58611C26.7651 10.0325 26.6088 10.412 26.2963 10.7245L14.1758 22.845L11.899 25.1218C11.5865 25.4343 11.207 25.5906 10.7606 25.5906C10.3142 25.5906 9.93471 25.4343 9.62221 25.1218L7.34542 22.845L1.28516 16.7848C0.972656 16.4723 0.816406 16.0928 0.816406 15.6464C0.816406 15.2 0.972656 14.8205 1.28516 14.508L3.56194 12.2312C3.87444 11.9187 4.25391 11.7625 4.70033 11.7625C5.14676 11.7625 5.52623 11.9187 5.83873 12.2312L10.7606 17.1698L21.7427 6.17093C22.0552 5.85843 22.4347 5.70218 22.8811 5.70218C23.3276 5.70218 23.707 5.85843 24.0195 6.17093L26.2963 8.44772Z" fill="#08A6E4"/>
</g>
<defs>
<clipPath id="clip0_4_382">
<rect width="30" height="30" fill="white" transform="matrix(1 0 0 -1 0.816406 30.1106)"/>
</clipPath>
</defs>
</svg>
