<svg width="22" height="17" viewBox="0 0 22 17" fill="none" xmlns="http://www.w3.org/2000/svg">
<g clip-path="url(#clip0_4_517)">
<path d="M13.7111 9.0223C13.7111 10.2604 13.4522 11.3631 12.9343 12.3303C12.4165 13.2976 11.6784 14.0536 10.72 14.5982C9.76169 15.1428 8.66348 15.4152 7.42538 15.4152C6.53848 15.4152 5.69026 15.2425 4.88074 14.8973C4.07121 14.5521 3.37478 14.0878 2.79145 13.5044C2.20812 12.9211 1.74383 12.2247 1.39859 11.4152C1.05336 10.6056 0.880737 9.75742 0.880737 8.87052C0.880737 7.98361 1.05336 7.1354 1.39859 6.32588C1.74383 5.51635 2.20812 4.81992 2.79145 4.23659C3.37478 3.65326 4.07121 3.18897 4.88074 2.84373C5.69026 2.49849 6.53848 2.32588 7.42538 2.32588C9.12776 2.32588 10.5891 2.8973 11.8093 4.04016L10.0325 5.74552C9.33609 5.0729 8.46705 4.73659 7.42538 4.73659C6.69324 4.73659 6.01615 4.92111 5.39413 5.29016C4.77211 5.65921 4.27955 6.1607 3.91645 6.79463C3.55336 7.42855 3.37181 8.12052 3.37181 8.87052C3.37181 9.62052 3.55336 10.3125 3.91645 10.9464C4.27955 11.5803 4.77211 12.0818 5.39413 12.4509C6.01615 12.8199 6.69324 13.0044 7.42538 13.0044C7.91943 13.0044 8.3733 12.936 8.78699 12.7991C9.20068 12.6622 9.54145 12.4911 9.80931 12.2857C10.0772 12.0803 10.3108 11.8467 10.5102 11.5848C10.7096 11.3229 10.8554 11.0759 10.9477 10.8437C11.04 10.6116 11.104 10.3914 11.1397 10.183H7.42538V7.93302H13.604C13.6754 8.30802 13.7111 8.67111 13.7111 9.0223ZM21.4522 7.93302V9.80802H19.5861V11.6741H17.7111V9.80802H15.845V7.93302H17.7111V6.06695H19.5861V7.93302H21.4522Z" fill="white"/>
</g>
<defs>
<clipPath id="clip0_4_517">
<rect width="20.58" height="16" fill="white" transform="matrix(1 0 0 -1 0.876465 16.8705)"/>
</clipPath>
</defs>
</svg>
