<svg width="31" height="31" viewBox="0 0 31 31" fill="none" xmlns="http://www.w3.org/2000/svg">
<g clip-path="url(#clip0_4_365)">
<path d="M26.2963 8.37765C26.6088 8.69015 26.7651 9.06962 26.7651 9.51604C26.7651 9.96247 26.6088 10.3419 26.2963 10.6544L14.1758 22.775L11.899 25.0518C11.5865 25.3643 11.207 25.5205 10.7606 25.5205C10.3142 25.5205 9.93471 25.3643 9.62221 25.0518L7.34542 22.775L1.28516 16.7147C0.972656 16.4022 0.816406 16.0227 0.816406 15.5763C0.816406 15.1299 0.972656 14.7504 1.28516 14.4379L3.56194 12.1611C3.87444 11.8486 4.25391 11.6924 4.70033 11.6924C5.14676 11.6924 5.52623 11.8486 5.83873 12.1611L10.7606 17.0997L21.7427 6.10087C22.0552 5.78837 22.4347 5.63212 22.8811 5.63212C23.3276 5.63212 23.707 5.78837 24.0195 6.10087L26.2963 8.37765Z" fill="#08A6E4"/>
</g>
<defs>
<clipPath id="clip0_4_365">
<rect width="30" height="30" fill="white" transform="matrix(1 0 0 -1 0.816406 30.0405)"/>
</clipPath>
</defs>
</svg>
