<svg width="10" height="14" viewBox="0 0 10 14" fill="none" xmlns="http://www.w3.org/2000/svg">
<g clip-path="url(#clip0_4_556)">
<path d="M8.29883 5.57031C8.35091 5.6224 8.37695 5.68229 8.37695 5.75C8.37695 5.81771 8.35091 5.8776 8.29883 5.92969L4.6582 9.57031C4.60612 9.6224 4.54622 9.64844 4.47852 9.64844C4.41081 9.64844 4.35091 9.6224 4.29883 9.57031L0.658203 5.92969C0.60612 5.8776 0.580078 5.81771 0.580078 5.75C0.580078 5.68229 0.60612 5.6224 0.658203 5.57031L1.04883 5.17969C1.10091 5.1276 1.16081 5.10156 1.22852 5.10156C1.29622 5.10156 1.35612 5.1276 1.4082 5.17969L4.47852 8.25L7.54883 5.17969C7.60091 5.1276 7.66081 5.10156 7.72852 5.10156C7.79622 5.10156 7.85612 5.1276 7.9082 5.17969L8.29883 5.57031Z" fill="white"/>
</g>
<defs>
<clipPath id="clip0_4_556">
<rect width="9" height="14" fill="white" transform="matrix(1 0 0 -1 0.580078 14)"/>
</clipPath>
</defs>
</svg>
