<svg width="34" height="36" viewBox="0 0 34 36" fill="none" xmlns="http://www.w3.org/2000/svg">
<g clip-path="url(#clip0_4_20)">
<path d="M12.5742 28.3027C12.5742 28.3027 12.6979 28.4264 12.9453 28.6738C13.1927 28.9212 13.3164 29.3835 13.3164 30.0605C13.3164 30.7376 13.069 31.3236 12.5742 31.8184C12.0794 32.3132 11.4935 32.5605 10.8164 32.5605C10.1393 32.5605 9.55339 32.3132 9.05859 31.8184C8.5638 31.3236 8.31641 30.7376 8.31641 30.0605C8.31641 29.3835 8.5638 28.7975 9.05859 28.3027C9.55339 27.8079 10.1393 27.5605 10.8164 27.5605C11.4935 27.5605 12.0794 27.8079 12.5742 28.3027ZM30.0742 28.3027C30.0742 28.3027 30.1979 28.4264 30.4453 28.6738C30.6927 28.9212 30.8164 29.3835 30.8164 30.0605C30.8164 30.7376 30.569 31.3236 30.0742 31.8184C29.5794 32.3132 28.9935 32.5605 28.3164 32.5605C27.6393 32.5605 27.0534 32.3132 26.5586 31.8184C26.0638 31.3236 25.8164 30.7376 25.8164 30.0605C25.8164 29.3835 26.0638 28.7975 26.5586 28.3027C27.0534 27.8079 27.6393 27.5605 28.3164 27.5605C28.9935 27.5605 29.5794 27.8079 30.0742 28.3027ZM33.3164 8.81055V18.8105C33.3164 19.123 33.209 19.3997 32.9941 19.6406C32.7793 19.8815 32.5156 20.0215 32.2031 20.0605L11.8125 22.4434C11.9818 23.2246 12.0664 23.6803 12.0664 23.8105C12.0664 24.0189 11.9102 24.4355 11.5977 25.0605H29.5664C29.9049 25.0605 30.1979 25.1842 30.4453 25.4316C30.6927 25.679 30.8164 25.972 30.8164 26.3105C30.8164 26.6491 30.6927 26.9421 30.4453 27.1895C30.1979 27.4368 29.9049 27.5605 29.5664 27.5605H9.56641C9.22786 27.5605 8.9349 27.4368 8.6875 27.1895C8.4401 26.9421 8.31641 26.6491 8.31641 26.3105C8.31641 26.1673 8.36849 25.9622 8.47266 25.6953C8.57682 25.4284 8.68099 25.194 8.78516 24.9922C8.88932 24.7904 9.0293 24.5299 9.20508 24.2109C9.38086 23.8919 9.48177 23.6999 9.50781 23.6348L6.05078 7.56055H2.06641C1.72786 7.56055 1.4349 7.43685 1.1875 7.18945C0.940104 6.94206 0.816406 6.64909 0.816406 6.31055C0.816406 5.97201 0.940104 5.67904 1.1875 5.43164C1.4349 5.18424 1.72786 5.06055 2.06641 5.06055H7.06641C7.27474 5.06055 7.46029 5.10287 7.62305 5.1875C7.78581 5.27213 7.91276 5.37305 8.00391 5.49023C8.09505 5.60742 8.17969 5.76693 8.25781 5.96875C8.33594 6.17057 8.38802 6.33984 8.41406 6.47656C8.4401 6.61328 8.47591 6.80534 8.52148 7.05273C8.56706 7.30013 8.59635 7.4694 8.60938 7.56055H32.0664C32.4049 7.56055 32.6979 7.68424 32.9453 7.93164C33.1927 8.17904 33.3164 8.47201 33.3164 8.81055Z" fill="#2E2323"/>
</g>
<defs>
<clipPath id="clip0_4_20">
<rect width="32.5" height="35" fill="white" transform="matrix(1 0 0 -1 0.816406 35.0605)"/>
</clipPath>
</defs>
</svg>
