<svg width="34" height="36" viewBox="0 0 34 36" fill="none" xmlns="http://www.w3.org/2000/svg">
<g clip-path="url(#clip0_4_32)">
<path d="M5.81641 26.3105C5.81641 25.972 5.69271 25.679 5.44531 25.4316C5.19792 25.1842 4.90495 25.0605 4.56641 25.0605C4.21484 25.0605 3.91862 25.1842 3.67773 25.4316C3.43685 25.679 3.31641 25.972 3.31641 26.3105C3.31641 26.6621 3.43685 26.9583 3.67773 27.1992C3.91862 27.4401 4.21484 27.5605 4.56641 27.5605C4.90495 27.5605 5.19792 27.4401 5.44531 27.1992C5.69271 26.9583 5.81641 26.6621 5.81641 26.3105ZM8.94141 16.3105V28.8105C8.94141 29.1491 8.81771 29.4421 8.57031 29.6895C8.32292 29.9368 8.02995 30.0605 7.69141 30.0605H2.06641C1.72786 30.0605 1.4349 29.9368 1.1875 29.6895C0.940104 29.4421 0.816406 29.1491 0.816406 28.8105V16.3105C0.816406 15.972 0.940104 15.679 1.1875 15.4316C1.4349 15.1842 1.72786 15.0605 2.06641 15.0605H7.69141C8.02995 15.0605 8.32292 15.1842 8.57031 15.4316C8.81771 15.679 8.94141 15.972 8.94141 16.3105ZM32.0664 16.3105C32.0664 17.4303 31.7083 18.4004 30.9922 19.2207C31.1875 19.7936 31.2852 20.2884 31.2852 20.7051C31.3242 21.6947 31.0443 22.5866 30.4453 23.3809C30.6667 24.11 30.6667 24.8717 30.4453 25.666C30.25 26.4082 29.8984 27.0202 29.3906 27.502C29.5078 28.9603 29.1888 30.1387 28.4336 31.0371C27.6003 32.0267 26.3177 32.5345 24.5859 32.5605H23.8828H22.3984H22.0664C21.207 32.5605 20.2695 32.4596 19.2539 32.2578C18.2383 32.056 17.4473 31.8672 16.8809 31.6914C16.3145 31.5156 15.5299 31.2585 14.5273 30.9199C12.9258 30.36 11.8971 30.0736 11.4414 30.0605C11.1029 30.0475 10.8099 29.9206 10.5625 29.6797C10.3151 29.4388 10.1914 29.1491 10.1914 28.8105V16.291C10.1914 15.9655 10.3086 15.6823 10.543 15.4414C10.7773 15.2005 11.0573 15.0671 11.3828 15.041C11.6953 15.015 12.1901 14.6309 12.8672 13.8887C13.5443 13.1465 14.2018 12.3587 14.8398 11.5254C15.7253 10.3926 16.3828 9.61133 16.8125 9.18164C17.0469 8.94727 17.2487 8.63477 17.418 8.24414C17.5872 7.85352 17.7012 7.53776 17.7598 7.29688C17.8184 7.05599 17.9062 6.66211 18.0234 6.11523C18.1146 5.60742 18.196 5.21029 18.2676 4.92383C18.3392 4.63737 18.4661 4.29883 18.6484 3.9082C18.8307 3.51758 19.0521 3.19206 19.3125 2.93164C19.5599 2.68424 19.8529 2.56055 20.1914 2.56055C20.7904 2.56055 21.3275 2.62891 21.8027 2.76562C22.278 2.90234 22.6686 3.07162 22.9746 3.27344C23.2806 3.47526 23.541 3.73893 23.7559 4.06445C23.9707 4.38997 24.127 4.68294 24.2246 4.94336C24.3223 5.20378 24.4004 5.5293 24.459 5.91992C24.5176 6.31055 24.5501 6.60352 24.5566 6.79883C24.5632 6.99414 24.5664 7.24805 24.5664 7.56055C24.5664 8.05534 24.5046 8.55013 24.3809 9.04492C24.2572 9.53971 24.1335 9.93034 24.0098 10.2168C23.8861 10.5033 23.707 10.8678 23.4727 11.3105C23.4336 11.3887 23.3685 11.5059 23.2773 11.6621C23.1862 11.8184 23.1146 11.9616 23.0625 12.0918C23.0104 12.222 22.9583 12.3783 22.9062 12.5605H28.3164C29.332 12.5605 30.2109 12.9316 30.9531 13.6738C31.6953 14.416 32.0664 15.2949 32.0664 16.3105Z" fill="#2E2323"/>
</g>
<defs>
<clipPath id="clip0_4_32">
<rect width="32.5" height="35" fill="white" transform="matrix(1 0 0 -1 0.816406 35.0605)"/>
</clipPath>
</defs>
</svg>
