<svg width="5" height="7" viewBox="0 0 5 7" fill="none" xmlns="http://www.w3.org/2000/svg">
<g opacity="0.8" clip-path="url(#clip0_4_416)">
<path d="M3.58372 3.35704L1.09935 5.84141C1.05694 5.88382 1.00671 5.90503 0.948678 5.90503C0.890642 5.90503 0.840419 5.88382 0.798009 5.84141L0.242205 5.28561C0.199794 5.2432 0.178589 5.19298 0.178589 5.13494C0.178589 5.0769 0.199794 5.02668 0.242205 4.98427L2.02011 3.20637L0.242205 1.42847C0.199794 1.38606 0.178589 1.33583 0.178589 1.2778C0.178589 1.21976 0.199794 1.16954 0.242205 1.12713L0.798009 0.571323C0.840419 0.528913 0.890642 0.507708 0.948678 0.507708C1.00671 0.507708 1.05694 0.528913 1.09935 0.571323L3.58372 3.0557C3.62613 3.09811 3.64734 3.14833 3.64734 3.20637C3.64734 3.2644 3.62613 3.31463 3.58372 3.35704Z" fill="#2E2323"/>
</g>
<defs>
<clipPath id="clip0_4_416">
<rect width="4.45" height="6" fill="white" transform="matrix(1 0 0 -1 0.0964355 6.42065)"/>
</clipPath>
</defs>
</svg>
